<?xml version="1.0" standalone="no"?>
<!DOCTYPE svg PUBLIC "-//W3C//DTD SVG 20010904//EN"
 "http://www.w3.org/TR/2001/REC-SVG-20010904/DTD/svg10.dtd">
<svg version="1.0" xmlns="http://www.w3.org/2000/svg"
 width="90.000000pt" height="90.000000pt" viewBox="0 0 90.000000 90.000000"
 preserveAspectRatio="xMidYMid meet">
<metadata>
Created by potrace 1.11, written by Peter Selinger 2001-2013
</metadata>
<g transform="translate(0.000000,90.000000) scale(0.100000,-0.100000)"
fill="#000000" stroke="none">
<path d="M443 820 c-18 -10 -39 -38 -52 -67 -12 -26 -28 -59 -34 -73 -7 -14
-41 -44 -76 -66 -61 -41 -141 -111 -141 -125 0 -4 13 5 29 20 15 15 74 51 129
80 101 54 187 126 203 169 24 62 -6 94 -58 62z"/>
<path d="M496 681 c-4 -5 -38 -31 -77 -56 -38 -26 -69 -49 -67 -51 2 -2 22 3
43 10 46 16 109 25 180 25 l50 1 -35 23 c-78 53 -88 58 -94 48z"/>
<path d="M767 574 c-3 -3 -75 -9 -160 -13 l-155 -6 -94 -47 c-51 -25 -118 -54
-149 -64 -50 -15 -56 -20 -57 -44 0 -15 -8 -44 -16 -65 -9 -21 -16 -40 -16
-43 0 -13 185 10 280 34 100 26 190 33 254 20 50 -9 106 -55 144 -117 21 -32
42 -60 47 -63 6 -2 9 30 8 87 -1 77 -6 99 -30 147 -28 56 -28 57 -8 66 30 14
50 61 36 90 -8 18 -18 24 -44 24 -19 0 -36 -3 -40 -6z m-303 -129 c-7 -18 -41
-28 -80 -23 l-29 3 28 15 c39 22 88 25 81 5z"/>
<path d="M64 413 c-12 -2 -29 -12 -38 -22 -16 -17 -15 -21 9 -50 15 -17 31
-31 36 -31 10 0 27 39 36 83 6 28 3 29 -43 20z"/>
<path d="M562 274 c25 -8 77 -31 115 -51 l68 -37 -34 42 c-43 56 -58 62 -133
61 l-63 0 47 -15z"/>
<path d="M297 239 c-14 -4 -28 -4 -31 -1 -3 3 -6 1 -6 -4 0 -8 138 -76 215
-105 17 -6 74 -13 129 -16 63 -2 116 -11 149 -23 44 -17 48 -17 31 -2 -80 72
-190 134 -259 146 -57 10 -198 13 -228 5z"/>
</g>
</svg>
